<?xml version="1.0" encoding="iso-8859-1"?>
<!-- Generator: Adobe Illustrator 19.0.0, SVG Export Plug-In . SVG Version: 6.00 Build 0)  -->
<svg version="1.1" id="Layer_1" xmlns="http://www.w3.org/2000/svg" xmlns:xlink="http://www.w3.org/1999/xlink" x="0px" y="0px"
	 viewBox="0 0 473.931 473.931" style="enable-background:new 0 0 473.931 473.931;" xml:space="preserve">
<circle style="fill:#E84849;" cx="236.966" cy="236.966" r="236.966"/>
<path style="fill:#E9C29C;" d="M346.921,265.751c0,57.979-46.978,104.96-104.938,104.96c-57.952,0-104.938-46.982-104.938-104.96
	c0-57.941,46.985-104.93,104.938-104.93C299.943,160.821,346.921,207.806,346.921,265.751z"/>
<g>
	<ellipse style="fill:#343433;" cx="210.511" cy="281.343" rx="14.38" ry="15.188"/>
	<ellipse style="fill:#343433;" cx="272.849" cy="281.343" rx="14.38" ry="15.188"/>
</g>
<g>
	<path style="fill:#FFFFFF;" d="M283.068,275.596c0,3.349-2.567,6.08-5.744,6.08c-3.166,0-5.736-2.731-5.736-6.08
		c0-3.36,2.574-6.073,5.736-6.073C280.505,269.523,283.068,272.232,283.068,275.596z"/>
	<path style="fill:#FFFFFF;" d="M220.622,275.596c0,3.349-2.574,6.08-5.759,6.08c-3.173,0-5.744-2.731-5.744-6.08
		c0-3.36,2.574-6.073,5.744-6.073C218.047,269.523,220.622,272.232,220.622,275.596z"/>
</g>
<path style="fill:#B25E27;" d="M346.921,265.751l-71.546-64.37c0,0-15.244,25.234-55.872,43.603
	c-39.187,17.717-82.457,20.767-82.457,20.767c0-57.941,46.985-104.93,104.938-104.93
	C299.943,160.821,346.921,207.806,346.921,265.751z"/>
<path style="fill:#EDC92C;" d="M341.922,228.7c0,0,32.969-142.381-99.939-142.381S142.06,228.7,142.06,228.7H341.922z"/>
<circle style="fill:#BF2626;" cx="239.622" cy="140.458" r="37.717"/>
<path style="fill:#E17A2D;" d="M232.262,129.843c2.93-7.644,2.361-19.184,2.361-19.184s7.82,3.27,13.212,12.265
	c5.066,8.438,0.269,21.014,0.269,21.014c3.742-3.727,5.122-7.461,5.246-11.947c4.195,6.701,7.431,14.368,7.431,22.133
	c0,9.605-8.733,17.384-19.513,17.388c-10.788-0.007-19.528-7.783-19.528-17.388C221.748,144.772,228.797,138.842,232.262,129.843z"
	/>
<g style="opacity:0.8;">
	<path style="fill:#F4E028;" d="M236.086,146.198c1.616-4.632,1.31-11.626,1.31-11.626s15.472,11.76,14.368,26.357
		c-0.438,5.807-4.793,10.541-10.728,10.541c-5.912,0-10.713-4.722-10.713-10.541C230.32,155.253,234.186,151.657,236.086,146.198z"
		/>
</g>
<g style="opacity:0.8;">
	<path style="fill:#FFFFFF;" d="M237.912,155.257c1.022-2.937,0.827-7.368,0.827-7.368s9.8,7.454,9.1,16.692
		c-0.277,3.686-3.035,6.683-6.788,6.69c-3.749-0.007-6.788-2.993-6.788-6.69C234.257,160.997,236.707,158.714,237.912,155.257z"/>
</g>
<path style="fill:#DBB626;" d="M378.528,216.539c0,20.666-61.148,14.656-136.574,14.656s-136.574,6.009-136.574-14.656
	s61.148-21.029,136.574-21.029S378.528,195.874,378.528,216.539z"/>
<g>
</g>
<g>
</g>
<g>
</g>
<g>
</g>
<g>
</g>
<g>
</g>
<g>
</g>
<g>
</g>
<g>
</g>
<g>
</g>
<g>
</g>
<g>
</g>
<g>
</g>
<g>
</g>
<g>
</g>
</svg>
